<svg xmlns="http://www.w3.org/2000/svg" xmlns:xlink="http://www.w3.org/1999/xlink" width="143" zoomAndPan="magnify" viewBox="0 0 107.25 107.249999" height="143" preserveAspectRatio="xMidYMid meet" version="1.0"><defs><clipPath id="0b9747b43c"><path d="M 0 0 L 105.964844 0 L 105.964844 105.964844 L 0 105.964844 Z M 0 0 " clip-rule="nonzero"/></clipPath><clipPath id="4589716da5"><path d="M 52.984375 0 C 23.722656 0 0 23.722656 0 52.984375 C 0 82.246094 23.722656 105.964844 52.984375 105.964844 C 82.246094 105.964844 105.964844 82.246094 105.964844 52.984375 C 105.964844 23.722656 82.246094 0 52.984375 0 Z M 52.984375 0 " clip-rule="nonzero"/></clipPath><clipPath id="19fbfcda4a"><path d="M 10.816406 13.054688 L 94 13.054688 L 94 96.46875 L 10.816406 96.46875 Z M 10.816406 13.054688 " clip-rule="nonzero"/></clipPath></defs><g clip-path="url(#0b9747b43c)"><g clip-path="url(#4589716da5)"><path fill="#38b6ff" d="M 0 0 L 105.964844 0 L 105.964844 105.964844 L 0 105.964844 Z M 0 0 " fill-opacity="1" fill-rule="nonzero"/></g></g><g clip-path="url(#19fbfcda4a)"><path fill="#ffffff" d="M 92.371094 50.914062 L 56.078125 14.621094 C 55.832031 14.375 55.5625 14.152344 55.269531 13.957031 C 54.976562 13.761719 54.667969 13.597656 54.34375 13.460938 C 54.019531 13.328125 53.683594 13.226562 53.339844 13.15625 C 52.996094 13.089844 52.644531 13.054688 52.292969 13.054688 C 51.941406 13.054688 51.59375 13.089844 51.25 13.15625 C 50.90625 13.226562 50.570312 13.328125 50.246094 13.460938 C 49.921875 13.597656 49.613281 13.761719 49.320312 13.957031 C 49.027344 14.152344 48.757812 14.375 48.511719 14.621094 L 40.976562 22.15625 L 50.535156 31.714844 C 52.757812 30.9375 55.304688 31.46875 57.078125 33.242188 C 57.5 33.664062 57.855469 34.136719 58.144531 34.65625 C 58.429688 35.179688 58.640625 35.730469 58.777344 36.3125 C 58.910156 36.894531 58.960938 37.484375 58.929688 38.082031 C 58.894531 38.675781 58.78125 39.257812 58.585938 39.820312 L 67.800781 49.035156 C 70.027344 48.265625 72.601562 48.761719 74.378906 50.546875 C 74.675781 50.84375 74.941406 51.164062 75.171875 51.511719 C 75.40625 51.859375 75.601562 52.226562 75.761719 52.613281 C 75.921875 53 76.042969 53.398438 76.125 53.808594 C 76.207031 54.21875 76.246094 54.632812 76.246094 55.050781 C 76.246094 55.46875 76.207031 55.886719 76.125 56.296875 C 76.042969 56.707031 75.921875 57.105469 75.761719 57.492188 C 75.601562 57.878906 75.40625 58.246094 75.171875 58.59375 C 74.941406 58.941406 74.675781 59.261719 74.382812 59.558594 C 74.085938 59.855469 73.761719 60.117188 73.414062 60.351562 C 73.066406 60.582031 72.699219 60.78125 72.3125 60.941406 C 71.925781 61.097656 71.527344 61.21875 71.117188 61.300781 C 70.707031 61.382812 70.292969 61.425781 69.875 61.421875 C 69.457031 61.421875 69.042969 61.382812 68.632812 61.300781 C 68.21875 61.21875 67.820312 61.097656 67.4375 60.9375 C 67.050781 60.777344 66.683594 60.582031 66.335938 60.347656 C 65.988281 60.117188 65.664062 59.851562 65.367188 59.554688 C 63.5 57.683594 63.035156 54.929688 63.980469 52.625 L 55.386719 44.035156 L 55.386719 66.648438 C 56.015625 66.957031 56.578125 67.359375 57.078125 67.851562 C 57.371094 68.148438 57.636719 68.46875 57.871094 68.816406 C 58.101562 69.164062 58.296875 69.53125 58.457031 69.917969 C 58.617188 70.304688 58.738281 70.703125 58.820312 71.113281 C 58.902344 71.523438 58.941406 71.9375 58.941406 72.355469 C 58.941406 72.773438 58.902344 73.1875 58.820312 73.597656 C 58.738281 74.007812 58.617188 74.40625 58.457031 74.792969 C 58.296875 75.179688 58.101562 75.546875 57.871094 75.894531 C 57.636719 76.242188 57.371094 76.566406 57.078125 76.859375 C 56.78125 77.15625 56.460938 77.421875 56.113281 77.652344 C 55.765625 77.886719 55.398438 78.082031 55.011719 78.242188 C 54.625 78.402344 54.226562 78.523438 53.816406 78.605469 C 53.40625 78.6875 52.992188 78.726562 52.574219 78.726562 C 52.15625 78.726562 51.738281 78.6875 51.328125 78.605469 C 50.917969 78.523438 50.519531 78.402344 50.136719 78.242188 C 49.75 78.082031 49.382812 77.886719 49.035156 77.652344 C 48.6875 77.421875 48.363281 77.15625 48.066406 76.859375 C 47.773438 76.566406 47.507812 76.242188 47.273438 75.894531 C 47.042969 75.546875 46.847656 75.179688 46.6875 74.792969 C 46.527344 74.40625 46.40625 74.007812 46.324219 73.597656 C 46.242188 73.1875 46.199219 72.773438 46.199219 72.355469 C 46.199219 71.9375 46.242188 71.523438 46.324219 71.113281 C 46.40625 70.703125 46.527344 70.304688 46.6875 69.917969 C 46.847656 69.53125 47.042969 69.164062 47.273438 68.816406 C 47.507812 68.46875 47.773438 68.148438 48.066406 67.851562 C 48.683594 67.238281 49.367188 66.773438 50.152344 66.460938 L 50.152344 43.640625 C 49.394531 43.328125 48.683594 42.867188 48.066406 42.25 C 47.621094 41.800781 47.25 41.300781 46.949219 40.742188 C 46.652344 40.183594 46.445312 39.597656 46.320312 38.976562 C 46.199219 38.355469 46.171875 37.730469 46.234375 37.101562 C 46.296875 36.472656 46.453125 35.867188 46.695312 35.285156 L 37.265625 25.859375 L 12.382812 50.71875 C 12.132812 50.96875 11.910156 51.238281 11.714844 51.53125 C 11.519531 51.824219 11.355469 52.132812 11.21875 52.457031 C 11.085938 52.78125 10.984375 53.117188 10.914062 53.460938 C 10.847656 53.804688 10.8125 54.15625 10.8125 54.507812 C 10.8125 54.859375 10.847656 55.207031 10.914062 55.550781 C 10.984375 55.894531 11.085938 56.230469 11.21875 56.554688 C 11.355469 56.878906 11.519531 57.1875 11.714844 57.480469 C 11.910156 57.773438 12.132812 58.042969 12.382812 58.292969 L 48.675781 94.582031 C 48.925781 94.832031 49.195312 95.050781 49.488281 95.246094 C 49.78125 95.441406 50.085938 95.609375 50.414062 95.742188 C 50.738281 95.878906 51.070312 95.980469 51.417969 96.046875 C 51.761719 96.117188 52.109375 96.148438 52.460938 96.148438 C 52.8125 96.148438 53.160156 96.117188 53.503906 96.046875 C 53.851562 95.980469 54.183594 95.878906 54.507812 95.742188 C 54.835938 95.609375 55.144531 95.441406 55.433594 95.246094 C 55.726562 95.050781 55.996094 94.832031 56.246094 94.582031 L 92.371094 58.511719 C 92.621094 58.265625 92.84375 57.996094 93.039062 57.703125 C 93.234375 57.410156 93.398438 57.101562 93.535156 56.777344 C 93.667969 56.453125 93.769531 56.117188 93.839844 55.773438 C 93.90625 55.425781 93.941406 55.078125 93.941406 54.726562 C 93.941406 54.375 93.90625 54.027344 93.839844 53.683594 C 93.769531 53.335938 93.667969 53.003906 93.535156 52.679688 C 93.398438 52.351562 93.234375 52.042969 93.039062 51.753906 C 92.84375 51.460938 92.621094 51.191406 92.371094 50.941406 " fill-opacity="1" fill-rule="nonzero"/></g></svg>