<svg xmlns="http://www.w3.org/2000/svg" xmlns:xlink="http://www.w3.org/1999/xlink" width="143" zoomAndPan="magnify" viewBox="0 0 107.25 107.249999" height="143" preserveAspectRatio="xMidYMid meet" version="1.0"><defs><clipPath id="0df86f0a8d"><path d="M 0 0 L 105.964844 0 L 105.964844 105.964844 L 0 105.964844 Z M 0 0 " clip-rule="nonzero"/></clipPath><clipPath id="c565eafe89"><path d="M 52.984375 0 C 23.722656 0 0 23.722656 0 52.984375 C 0 82.246094 23.722656 105.964844 52.984375 105.964844 C 82.246094 105.964844 105.964844 82.246094 105.964844 52.984375 C 105.964844 23.722656 82.246094 0 52.984375 0 Z M 52.984375 0 " clip-rule="nonzero"/></clipPath><clipPath id="c51a8897b8"><path d="M 16.683594 16 L 87.4375 16 L 87.4375 87.453125 L 16.683594 87.453125 Z M 16.683594 16 " clip-rule="nonzero"/></clipPath></defs><g clip-path="url(#0df86f0a8d)"><g clip-path="url(#c565eafe89)"><path fill="#38b6ff" d="M 0 0 L 105.964844 0 L 105.964844 105.964844 L 0 105.964844 Z M 0 0 " fill-opacity="1" fill-rule="nonzero"/></g></g><g clip-path="url(#c51a8897b8)"><path fill="#ffffff" d="M 86.902344 74.066406 L 75.933594 66.351562 C 80.253906 61.121094 82.964844 53.648438 82.964844 45.367188 C 82.964844 29.582031 73.132812 16.742188 61.042969 16.742188 C 59.855469 16.742188 58.679688 16.867188 57.519531 17.117188 C 57.425781 17.074219 57.332031 17.046875 57.234375 17.035156 C 44.894531 15.40625 39.203125 20.96875 37.9375 22.4375 C 32.597656 23.796875 30.929688 28.023438 30.738281 30.523438 C 30.496094 30.589844 30.292969 30.648438 30.144531 30.691406 C 23.261719 33.039062 26.34375 43.941406 26.683594 45.066406 C 25.644531 46.863281 25.136719 48.796875 25.15625 50.871094 C 25.15625 56.03125 28.308594 60.230469 32.1875 60.230469 C 32.316406 60.230469 32.445312 60.21875 32.570312 60.210938 C 33.28125 62.539062 34.277344 64.742188 35.550781 66.816406 L 17.679688 78.019531 C 17.496094 78.132812 17.34375 78.28125 17.21875 78.457031 C 17.089844 78.632812 17.003906 78.824219 16.949219 79.035156 C 16.898438 79.242188 16.886719 79.453125 16.917969 79.667969 C 16.945312 79.882812 17.015625 80.082031 17.121094 80.273438 L 20.917969 86.664062 C 21.132812 87.023438 21.449219 87.203125 21.867188 87.203125 L 32.867188 87.203125 C 33.308594 87.203125 33.636719 87.003906 33.839844 86.609375 C 34.046875 86.214844 34.023438 85.835938 33.765625 85.472656 L 26.5 75.089844 L 31.21875 72.132812 C 32.257812 73.710938 33.476562 75.132812 34.871094 76.40625 C 36.265625 77.679688 37.796875 78.761719 39.460938 79.652344 C 41.128906 80.542969 42.878906 81.214844 44.710938 81.671875 C 46.542969 82.125 48.40625 82.347656 50.292969 82.335938 C 50.5 82.335938 50.710938 82.332031 50.921875 82.328125 C 50.960938 82.324219 51 82.320312 51.039062 82.3125 L 51.03125 85.019531 C 51.03125 85.398438 51.121094 85.75 51.304688 86.078125 C 51.488281 86.410156 51.742188 86.671875 52.0625 86.867188 C 52.390625 87.074219 52.746094 87.183594 53.132812 87.203125 C 53.515625 87.21875 53.882812 87.140625 54.226562 86.96875 L 60.027344 84.078125 C 60.742188 84.710938 61.582031 85.058594 62.535156 85.109375 C 62.617188 85.113281 62.695312 85.117188 62.773438 85.117188 C 63.816406 85.117188 64.726562 84.773438 65.503906 84.085938 C 65.597656 84.003906 65.683594 83.917969 65.769531 83.832031 L 72.0625 86.96875 C 72.40625 87.140625 72.773438 87.21875 73.15625 87.203125 C 73.542969 87.183594 73.898438 87.074219 74.226562 86.867188 C 74.546875 86.671875 74.800781 86.410156 74.984375 86.078125 C 75.167969 85.75 75.257812 85.398438 75.257812 85.019531 L 75.246094 81.636719 C 76.121094 81.300781 76.945312 80.871094 77.722656 80.351562 C 78.496094 79.828125 79.207031 79.226562 79.84375 78.542969 C 80.484375 77.859375 81.039062 77.117188 81.507812 76.308594 C 81.980469 75.5 82.351562 74.648438 82.628906 73.753906 L 84.933594 75.375 L 81.011719 85.710938 C 80.945312 85.878906 80.925781 86.054688 80.949219 86.234375 C 80.96875 86.414062 81.03125 86.578125 81.136719 86.726562 C 81.238281 86.875 81.371094 86.992188 81.53125 87.078125 C 81.6875 87.160156 81.859375 87.203125 82.039062 87.203125 C 82.484375 87.203125 87.371094 87.203125 87.371094 87.203125 L 87.371094 75.371094 C 87.371094 74.648438 87.3125 74.355469 86.902344 74.066406 Z M 51.046875 80.136719 C 50.988281 80.128906 50.925781 80.125 50.867188 80.125 C 50.675781 80.128906 50.488281 80.132812 50.300781 80.132812 C 48.597656 80.144531 46.917969 79.945312 45.265625 79.539062 C 43.613281 79.132812 42.035156 78.527344 40.53125 77.726562 C 39.027344 76.929688 37.644531 75.953125 36.386719 74.808594 C 35.125 73.664062 34.023438 72.382812 33.082031 70.964844 L 36.789062 68.640625 C 39.632812 72.472656 44.101562 76.164062 50.941406 76.738281 C 50.972656 76.742188 51.003906 76.742188 51.035156 76.742188 C 51.042969 76.742188 51.046875 76.742188 51.054688 76.742188 Z M 64.675781 81.152344 C 64.648438 81.667969 64.441406 82.09375 64.050781 82.433594 C 63.652344 82.785156 63.1875 82.941406 62.660156 82.910156 C 62.414062 82.902344 62.175781 82.847656 61.949219 82.746094 C 61.726562 82.648438 61.527344 82.507812 61.359375 82.328125 C 61.1875 82.148438 61.058594 81.941406 60.96875 81.710938 C 60.882812 81.480469 60.839844 81.242188 60.847656 80.996094 C 60.855469 80.746094 60.90625 80.511719 61.007812 80.285156 C 61.109375 80.058594 61.246094 79.859375 61.425781 79.691406 C 61.605469 79.519531 61.808594 79.390625 62.039062 79.300781 C 62.269531 79.210938 62.511719 79.167969 62.757812 79.175781 C 62.792969 79.175781 62.828125 79.175781 62.867188 79.179688 C 63.398438 79.207031 63.839844 79.414062 64.195312 79.808594 C 64.546875 80.1875 64.707031 80.636719 64.675781 81.152344 Z M 74.011719 74.226562 C 73.347656 73.890625 72.683594 73.894531 72.023438 74.234375 L 65.144531 77.730469 C 64.492188 77.269531 63.765625 77.019531 62.964844 76.980469 C 62.164062 76.941406 61.414062 77.117188 60.71875 77.515625 L 54.265625 74.234375 C 54.050781 74.121094 53.824219 74.050781 53.582031 74.015625 C 53.339844 73.976562 53.101562 73.984375 52.863281 74.027344 C 52.621094 74.070312 52.398438 74.152344 52.183594 74.269531 C 51.972656 74.386719 51.785156 74.539062 51.621094 74.71875 C 51.46875 74.621094 51.304688 74.5625 51.125 74.546875 C 39.46875 73.5625 35.542969 62.625 34.683594 59.628906 C 35.171875 59.382812 35.625 59.078125 36.035156 58.71875 C 36.148438 58.625 36.234375 58.511719 36.300781 58.378906 C 36.367188 58.25 36.40625 58.109375 36.417969 57.964844 C 36.425781 57.820312 36.410156 57.675781 36.363281 57.539062 C 36.316406 57.398438 36.246094 57.273438 36.148438 57.164062 C 36.054688 57.054688 35.941406 56.964844 35.808594 56.898438 C 35.679688 56.835938 35.542969 56.796875 35.394531 56.785156 C 35.25 56.777344 35.105469 56.792969 34.96875 56.839844 C 34.828125 56.886719 34.707031 56.960938 34.59375 57.054688 C 33.914062 57.683594 33.113281 58.003906 32.1875 58.027344 C 29.570312 58.027344 27.359375 54.75 27.359375 50.871094 C 27.359375 46.992188 29.570312 43.714844 32.1875 43.714844 C 32.8125 43.746094 33.398438 43.914062 33.945312 44.214844 C 34.492188 44.515625 34.945312 44.921875 35.304688 45.433594 C 35.394531 45.546875 35.503906 45.640625 35.632812 45.710938 C 35.757812 45.78125 35.894531 45.824219 36.039062 45.839844 C 36.183594 45.855469 36.328125 45.84375 36.46875 45.804688 C 36.605469 45.765625 36.734375 45.699219 36.847656 45.609375 C 36.960938 45.519531 37.054688 45.410156 37.125 45.28125 C 37.195312 45.15625 37.242188 45.019531 37.257812 44.875 C 37.273438 44.730469 37.265625 44.589844 37.222656 44.449219 C 37.183594 44.308594 37.121094 44.179688 37.03125 44.066406 C 36.464844 43.289062 35.757812 42.675781 34.90625 42.226562 C 34.054688 41.777344 33.148438 41.539062 32.1875 41.511719 C 30.757812 41.535156 29.503906 42.023438 28.433594 42.972656 C 27.824219 40.109375 27.03125 34.078125 30.816406 32.789062 C 34.382812 31.722656 40.023438 30.921875 41.402344 32.46875 C 41.421875 32.488281 41.441406 32.503906 41.460938 32.523438 C 39.886719 36.660156 39.105469 40.941406 39.121094 45.367188 C 39.117188 48.488281 39.503906 51.5625 40.28125 54.585938 L 37.820312 54.585938 C 37.671875 54.585938 37.53125 54.613281 37.398438 54.671875 C 37.261719 54.726562 37.144531 54.804688 37.039062 54.910156 C 36.9375 55.011719 36.859375 55.132812 36.800781 55.265625 C 36.746094 55.402344 36.71875 55.542969 36.71875 55.6875 C 36.71875 55.832031 36.746094 55.972656 36.800781 56.109375 C 36.859375 56.246094 36.9375 56.363281 37.039062 56.464844 C 37.144531 56.570312 37.261719 56.648438 37.398438 56.707031 C 37.53125 56.761719 37.671875 56.789062 37.820312 56.789062 L 41.652344 56.789062 C 41.800781 56.789062 41.945312 56.761719 42.082031 56.703125 C 42.214844 56.644531 42.335938 56.566406 42.441406 56.460938 C 42.542969 56.355469 42.621094 56.234375 42.675781 56.09375 C 42.730469 55.957031 42.757812 55.816406 42.753906 55.667969 L 42.75 55.375 C 42.746094 55.277344 42.734375 55.179688 42.703125 55.082031 C 41.777344 51.910156 41.316406 48.671875 41.324219 45.367188 C 41.324219 30.796875 50.171875 18.941406 61.042969 18.941406 C 67.773438 18.941406 73.722656 23.484375 77.28125 30.398438 C 76.3125 30.039062 75.3125 29.898438 74.28125 29.976562 C 73.25 30.054688 72.285156 30.34375 71.378906 30.84375 C 71.253906 30.921875 71.152344 31.019531 71.066406 31.136719 C 70.980469 31.253906 70.921875 31.382812 70.886719 31.527344 C 70.855469 31.667969 70.847656 31.808594 70.871094 31.953125 C 70.894531 32.097656 70.941406 32.230469 71.019531 32.355469 C 71.09375 32.480469 71.191406 32.585938 71.308594 32.667969 C 71.425781 32.753906 71.554688 32.816406 71.699219 32.851562 C 71.839844 32.886719 71.980469 32.890625 72.125 32.867188 C 72.269531 32.847656 72.402344 32.796875 72.527344 32.722656 C 72.65625 32.644531 75.699219 30.847656 78.839844 33.996094 C 80.136719 37.675781 80.777344 41.464844 80.761719 45.367188 C 80.761719 59.9375 71.917969 71.789062 61.042969 71.789062 C 59.101562 71.761719 57.230469 71.394531 55.421875 70.695312 C 53.609375 69.992188 51.980469 69 50.527344 67.710938 C 50.417969 67.617188 50.292969 67.546875 50.152344 67.503906 C 50.015625 67.457031 49.871094 67.441406 49.726562 67.453125 C 49.582031 67.464844 49.445312 67.507812 49.316406 67.574219 C 49.183594 67.640625 49.074219 67.726562 48.980469 67.839844 C 48.882812 67.949219 48.816406 68.074219 48.769531 68.214844 C 48.726562 68.351562 48.710938 68.496094 48.722656 68.640625 C 48.734375 68.785156 48.773438 68.921875 48.839844 69.054688 C 48.90625 69.183594 48.992188 69.296875 49.105469 69.390625 C 50.753906 70.847656 52.605469 71.972656 54.660156 72.765625 C 56.714844 73.554688 58.84375 73.964844 61.042969 73.992188 C 66.085938 73.992188 70.734375 71.75 74.445312 67.996094 L 76.976562 69.777344 C 76.964844 69.804688 76.953125 69.828125 76.945312 69.855469 C 76.382812 71.589844 75.40625 73.046875 74.011719 74.226562 Z M 75.242188 79.25 L 75.230469 76.160156 C 75.230469 76.136719 75.226562 76.113281 75.226562 76.089844 C 76.871094 74.738281 78.078125 73.074219 78.847656 71.09375 L 80.726562 72.414062 C 80.375 73.910156 79.71875 75.253906 78.757812 76.453125 C 77.796875 77.648438 76.625 78.582031 75.242188 79.25 Z M 75.242188 79.25 " fill-opacity="1" fill-rule="nonzero"/></g><path fill="#ffffff" d="M 60.941406 54.84375 C 60.921875 55.429688 61.046875 55.984375 61.308594 56.507812 C 61.570312 57.027344 61.941406 57.457031 62.421875 57.792969 C 63.382812 58.367188 64.421875 58.628906 65.542969 58.574219 C 67.367188 58.511719 69.140625 58.167969 70.859375 57.542969 C 73.507812 56.703125 74.976562 55.46875 75.222656 53.867188 C 75.59375 51.433594 72.910156 49.472656 72.601562 49.257812 C 72.566406 49.230469 72.527344 49.207031 72.488281 49.1875 C 68.414062 47.007812 67.019531 39.734375 67.007812 39.660156 C 66.980469 39.519531 66.925781 39.386719 66.847656 39.261719 C 66.765625 39.140625 66.667969 39.039062 66.546875 38.957031 C 66.425781 38.871094 66.296875 38.816406 66.152344 38.785156 C 66.011719 38.757812 65.867188 38.753906 65.722656 38.78125 C 65.578125 38.808594 65.445312 38.859375 65.324219 38.9375 C 65.203125 39.019531 65.101562 39.117188 65.015625 39.238281 C 64.933594 39.359375 64.878906 39.488281 64.847656 39.632812 C 64.816406 39.773438 64.8125 39.917969 64.839844 40.0625 C 64.902344 40.402344 66.425781 48.375 71.382812 51.09375 C 71.992188 51.535156 73.175781 52.695312 73.042969 53.535156 C 72.941406 54.207031 71.902344 54.902344 70.144531 55.460938 C 68.324219 56.128906 64.953125 56.855469 63.664062 55.972656 C 63.265625 55.683594 63.089844 55.292969 63.144531 54.800781 C 63.140625 54.65625 63.109375 54.515625 63.050781 54.382812 C 62.992188 54.25 62.910156 54.132812 62.804688 54.03125 C 62.703125 53.929688 62.582031 53.851562 62.445312 53.800781 C 62.308594 53.746094 62.167969 53.722656 62.023438 53.722656 C 61.875 53.726562 61.738281 53.757812 61.601562 53.816406 C 61.46875 53.875 61.351562 53.957031 61.25 54.0625 C 61.148438 54.164062 61.070312 54.285156 61.019531 54.421875 C 60.964844 54.558594 60.941406 54.699219 60.941406 54.84375 Z M 60.941406 54.84375 " fill-opacity="1" fill-rule="nonzero"/><path fill="#ffffff" d="M 50.59375 34.410156 C 51.628906 33.738281 52.972656 33.628906 54.589844 34.082031 C 54.726562 34.121094 54.871094 34.132812 55.015625 34.117188 C 55.160156 34.097656 55.296875 34.054688 55.421875 33.980469 C 55.550781 33.910156 55.660156 33.816406 55.75 33.703125 C 55.839844 33.589844 55.90625 33.460938 55.945312 33.320312 C 55.984375 33.179688 55.996094 33.039062 55.976562 32.894531 C 55.960938 32.75 55.917969 32.613281 55.84375 32.484375 C 55.773438 32.359375 55.679688 32.25 55.566406 32.160156 C 55.453125 32.066406 55.324219 32.003906 55.183594 31.964844 C 52.933594 31.332031 50.988281 31.53125 49.394531 32.5625 C 46.664062 34.332031 46.113281 37.898438 46.089844 38.050781 C 46.066406 38.195312 46.074219 38.339844 46.109375 38.480469 C 46.144531 38.625 46.203125 38.753906 46.292969 38.871094 C 46.378906 38.988281 46.484375 39.085938 46.609375 39.160156 C 46.738281 39.238281 46.871094 39.285156 47.015625 39.308594 C 47.164062 39.328125 47.304688 39.320312 47.449219 39.285156 C 47.589844 39.25 47.71875 39.1875 47.835938 39.097656 C 47.953125 39.011719 48.050781 38.902344 48.125 38.777344 C 48.199219 38.652344 48.246094 38.515625 48.269531 38.371094 C 48.273438 38.34375 48.71875 35.625 50.59375 34.410156 Z M 50.59375 34.410156 " fill-opacity="1" fill-rule="nonzero"/><path fill="#ffffff" d="M 55.4375 42.144531 C 55.300781 42.089844 55.160156 42.0625 55.015625 42.0625 C 54.867188 42.066406 54.730469 42.09375 54.59375 42.152344 C 54.460938 42.207031 54.339844 42.289062 54.238281 42.390625 C 54.136719 42.496094 54.058594 42.617188 54.003906 42.75 L 53.316406 44.453125 C 53.257812 44.597656 53.230469 44.75 53.234375 44.90625 C 53.242188 45.0625 53.277344 45.210938 53.347656 45.351562 C 53.417969 45.492188 53.511719 45.613281 53.636719 45.714844 C 53.757812 45.8125 53.890625 45.882812 54.042969 45.925781 C 55.210938 46.265625 56.40625 46.445312 57.621094 46.464844 C 58.707031 46.496094 59.738281 46.277344 60.71875 45.804688 C 61.335938 45.507812 61.75 45.03125 61.957031 44.375 C 62.125 43.804688 62.0625 43.261719 61.761719 42.746094 L 59.179688 38.214844 C 59.105469 38.089844 59.011719 37.980469 58.898438 37.890625 C 58.78125 37.800781 58.652344 37.738281 58.511719 37.699219 C 58.371094 37.660156 58.230469 37.652344 58.085938 37.667969 C 57.941406 37.6875 57.804688 37.734375 57.675781 37.804688 C 57.550781 37.878906 57.441406 37.972656 57.351562 38.085938 C 57.261719 38.203125 57.199219 38.328125 57.160156 38.46875 C 57.121094 38.609375 57.113281 38.753906 57.128906 38.898438 C 57.148438 39.042969 57.191406 39.179688 57.265625 39.304688 L 59.816406 43.777344 C 59.78125 43.804688 59.746094 43.828125 59.707031 43.847656 C 59.164062 44.128906 57.988281 44.484375 55.839844 44.085938 L 56.042969 43.578125 C 56.097656 43.441406 56.125 43.300781 56.125 43.15625 C 56.125 43.007812 56.09375 42.871094 56.039062 42.734375 C 55.980469 42.601562 55.898438 42.480469 55.796875 42.378906 C 55.691406 42.277344 55.570312 42.199219 55.4375 42.144531 Z M 55.4375 42.144531 " fill-opacity="1" fill-rule="nonzero"/><path fill="#ffffff" d="M 71.570312 45.175781 C 72.753906 45.640625 73.976562 45.886719 75.246094 45.914062 C 76.414062 45.949219 77.484375 45.644531 78.457031 44.996094 C 78.71875 44.8125 78.945312 44.589844 79.132812 44.328125 C 79.320312 44.066406 79.457031 43.78125 79.546875 43.472656 C 79.636719 43.164062 79.671875 42.847656 79.652344 42.527344 C 79.632812 42.207031 79.5625 41.898438 79.4375 41.601562 C 79.414062 41.542969 79.382812 41.488281 79.347656 41.433594 L 76.167969 36.511719 C 76.085938 36.390625 75.988281 36.289062 75.867188 36.207031 C 75.746094 36.121094 75.617188 36.066406 75.472656 36.035156 C 75.332031 36.003906 75.1875 36.003906 75.042969 36.03125 C 74.902344 36.054688 74.769531 36.109375 74.648438 36.1875 C 74.523438 36.265625 74.421875 36.367188 74.339844 36.484375 C 74.257812 36.605469 74.199219 36.738281 74.167969 36.878906 C 74.136719 37.023438 74.132812 37.164062 74.160156 37.308594 C 74.1875 37.449219 74.238281 37.585938 74.316406 37.707031 L 77.433594 42.53125 C 77.515625 42.804688 77.441406 43.023438 77.203125 43.1875 C 76.566406 43.628906 75.402344 43.988281 73.375 43.441406 L 73.539062 42.988281 C 73.589844 42.851562 73.609375 42.707031 73.605469 42.5625 C 73.597656 42.417969 73.5625 42.277344 73.5 42.144531 C 73.4375 42.011719 73.351562 41.898438 73.246094 41.800781 C 73.136719 41.703125 73.015625 41.628906 72.878906 41.578125 C 72.738281 41.527344 72.597656 41.507812 72.453125 41.515625 C 72.304688 41.519531 72.167969 41.554688 72.035156 41.617188 C 71.902344 41.679688 71.789062 41.765625 71.691406 41.871094 C 71.589844 41.980469 71.515625 42.105469 71.46875 42.242188 L 70.917969 43.769531 C 70.867188 43.90625 70.847656 44.046875 70.851562 44.191406 C 70.859375 44.335938 70.894531 44.476562 70.957031 44.605469 C 71.015625 44.738281 71.101562 44.855469 71.207031 44.953125 C 71.3125 45.050781 71.4375 45.125 71.570312 45.175781 Z M 71.570312 45.175781 " fill-opacity="1" fill-rule="nonzero"/><path fill="#ffffff" d="M 65.714844 60.117188 C 61.101562 60.882812 58.054688 57.457031 57.921875 57.308594 C 57.824219 57.195312 57.714844 57.109375 57.582031 57.042969 C 57.453125 56.976562 57.3125 56.9375 57.167969 56.929688 C 57.023438 56.917969 56.878906 56.933594 56.742188 56.980469 C 56.601562 57.027344 56.480469 57.097656 56.367188 57.191406 C 56.257812 57.289062 56.167969 57.402344 56.105469 57.53125 C 56.039062 57.660156 56 57.800781 55.988281 57.945312 C 55.976562 58.089844 55.996094 58.234375 56.042969 58.371094 C 56.085938 58.511719 56.15625 58.636719 56.253906 58.746094 C 56.398438 58.910156 59.488281 62.433594 64.371094 62.433594 C 64.941406 62.433594 65.511719 62.386719 66.078125 62.289062 C 66.222656 62.265625 66.355469 62.214844 66.480469 62.140625 C 66.605469 62.0625 66.707031 61.964844 66.792969 61.84375 C 66.878906 61.726562 66.9375 61.59375 66.96875 61.453125 C 67.003906 61.3125 67.007812 61.167969 66.984375 61.023438 C 66.960938 60.878906 66.910156 60.746094 66.832031 60.621094 C 66.753906 60.496094 66.65625 60.394531 66.539062 60.308594 C 66.417969 60.222656 66.289062 60.164062 66.144531 60.132812 C 66.003906 60.097656 65.859375 60.09375 65.714844 60.117188 Z M 65.714844 60.117188 " fill-opacity="1" fill-rule="nonzero"/><path fill="#ffffff" d="M 74.972656 57.855469 C 74.304688 58.632812 72.492188 59.320312 70.128906 59.691406 C 69.847656 59.738281 69.617188 59.871094 69.4375 60.097656 C 69.257812 60.324219 69.183594 60.578125 69.203125 60.867188 C 69.226562 61.152344 69.34375 61.394531 69.554688 61.585938 C 69.765625 61.78125 70.011719 61.878906 70.300781 61.882812 C 70.359375 61.882812 70.417969 61.875 70.472656 61.867188 C 72.558594 61.539062 75.320312 60.824219 76.640625 59.296875 C 76.734375 59.1875 76.804688 59.0625 76.851562 58.925781 C 76.894531 58.785156 76.914062 58.644531 76.902344 58.5 C 76.890625 58.355469 76.855469 58.21875 76.789062 58.085938 C 76.722656 57.957031 76.636719 57.84375 76.523438 57.75 C 76.414062 57.652344 76.289062 57.582031 76.152344 57.535156 C 76.015625 57.492188 75.871094 57.472656 75.726562 57.484375 C 75.582031 57.492188 75.445312 57.53125 75.3125 57.59375 C 75.183594 57.660156 75.070312 57.746094 74.972656 57.855469 Z M 74.972656 57.855469 " fill-opacity="1" fill-rule="nonzero"/><path fill="#ffffff" d="M 65.726562 65.511719 C 57.492188 66.796875 54.875 62.128906 54.761719 61.917969 C 54.691406 61.789062 54.601562 61.679688 54.492188 61.585938 C 54.378906 61.492188 54.253906 61.425781 54.113281 61.382812 C 53.976562 61.339844 53.832031 61.324219 53.6875 61.335938 C 53.542969 61.351562 53.40625 61.390625 53.277344 61.457031 C 53.148438 61.523438 53.039062 61.613281 52.945312 61.726562 C 52.851562 61.835938 52.78125 61.960938 52.738281 62.101562 C 52.691406 62.238281 52.675781 62.378906 52.6875 62.527344 C 52.703125 62.671875 52.742188 62.808594 52.808594 62.9375 C 52.925781 63.164062 55.488281 67.9375 62.964844 67.9375 C 64.007812 67.933594 65.039062 67.851562 66.066406 67.6875 C 66.210938 67.664062 66.347656 67.617188 66.46875 67.539062 C 66.59375 67.464844 66.699219 67.367188 66.785156 67.25 C 66.871094 67.128906 66.933594 67 66.96875 66.859375 C 67 66.71875 67.007812 66.574219 66.984375 66.429688 C 66.960938 66.285156 66.914062 66.152344 66.835938 66.027344 C 66.761719 65.902344 66.664062 65.796875 66.546875 65.710938 C 66.429688 65.625 66.296875 65.5625 66.15625 65.53125 C 66.015625 65.496094 65.871094 65.488281 65.726562 65.511719 Z M 65.726562 65.511719 " fill-opacity="1" fill-rule="nonzero"/><path fill="#ffffff" d="M 30.0625 47.742188 C 29.925781 47.785156 29.800781 47.855469 29.6875 47.945312 C 29.578125 48.039062 29.488281 48.152344 29.417969 48.277344 C 29.351562 48.40625 29.308594 48.542969 29.296875 48.6875 C 29.28125 48.832031 29.296875 48.972656 29.339844 49.113281 C 29.378906 49.25 29.449219 49.378906 29.539062 49.488281 C 29.632812 49.601562 29.742188 49.691406 29.867188 49.761719 C 29.996094 49.832031 30.132812 49.871094 30.277344 49.886719 C 30.421875 49.902344 30.5625 49.890625 30.703125 49.847656 C 30.957031 49.757812 31.21875 49.722656 31.492188 49.746094 C 31.761719 49.765625 32.015625 49.839844 32.253906 49.972656 C 32.492188 50.101562 32.691406 50.273438 32.855469 50.492188 C 33.019531 50.707031 33.132812 50.949219 33.191406 51.210938 C 33.238281 51.351562 33.308594 51.476562 33.402344 51.585938 C 33.5 51.695312 33.609375 51.785156 33.742188 51.851562 C 33.871094 51.917969 34.007812 51.957031 34.15625 51.96875 C 34.300781 51.980469 34.441406 51.960938 34.582031 51.917969 C 34.71875 51.871094 34.84375 51.800781 34.957031 51.707031 C 35.066406 51.613281 35.15625 51.5 35.222656 51.371094 C 35.289062 51.242188 35.328125 51.101562 35.339844 50.957031 C 35.351562 50.8125 35.332031 50.667969 35.289062 50.53125 C 35.210938 50.265625 35.113281 50.007812 34.984375 49.761719 C 34.859375 49.515625 34.707031 49.285156 34.535156 49.070312 C 34.359375 48.855469 34.167969 48.660156 33.953125 48.484375 C 33.742188 48.308594 33.511719 48.15625 33.269531 48.023438 C 33.023438 47.894531 32.769531 47.789062 32.503906 47.710938 C 32.238281 47.632812 31.96875 47.582031 31.695312 47.554688 C 31.417969 47.53125 31.144531 47.535156 30.867188 47.566406 C 30.59375 47.597656 30.324219 47.65625 30.0625 47.742188 Z M 30.0625 47.742188 " fill-opacity="1" fill-rule="nonzero"/></svg>