<svg xmlns="http://www.w3.org/2000/svg" xmlns:xlink="http://www.w3.org/1999/xlink" width="143" zoomAndPan="magnify" viewBox="0 0 107.25 107.249999" height="143" preserveAspectRatio="xMidYMid meet" version="1.0"><defs><clipPath id="6765123912"><path d="M 0 0 L 105.964844 0 L 105.964844 105.964844 L 0 105.964844 Z M 0 0 " clip-rule="nonzero"/></clipPath><clipPath id="b294b50329"><path d="M 52.984375 0 C 23.722656 0 0 23.722656 0 52.984375 C 0 82.246094 23.722656 105.964844 52.984375 105.964844 C 82.246094 105.964844 105.964844 82.246094 105.964844 52.984375 C 105.964844 23.722656 82.246094 0 52.984375 0 Z M 52.984375 0 " clip-rule="nonzero"/></clipPath><clipPath id="46242cf162"><path d="M 11.734375 12.53125 L 94.40625 12.53125 L 94.40625 95.203125 L 11.734375 95.203125 Z M 11.734375 12.53125 " clip-rule="nonzero"/></clipPath></defs><g clip-path="url(#6765123912)"><g clip-path="url(#b294b50329)"><path fill="#38b6ff" d="M 0 0 L 105.964844 0 L 105.964844 105.964844 L 0 105.964844 Z M 0 0 " fill-opacity="1" fill-rule="nonzero"/></g></g><g clip-path="url(#46242cf162)"><path fill="#ffffff" d="M 52.992188 12.542969 C 30.300781 12.542969 11.738281 31.105469 11.738281 53.792969 C 11.738281 76.484375 30.300781 95.046875 52.992188 95.046875 C 75.679688 95.046875 94.242188 76.484375 94.242188 53.792969 C 94.242188 31.105469 75.679688 12.542969 52.992188 12.542969 Z M 69.902344 74.421875 C 69.121094 74.421875 68.5 74.007812 67.636719 73.308594 L 46.347656 56.105469 L 39.210938 74.007812 L 33.066406 74.007812 L 51.09375 30.652344 C 51.546875 29.496094 52.535156 28.917969 53.691406 28.917969 C 54.847656 28.917969 55.753906 29.496094 56.25 30.652344 L 72.667969 70.171875 C 72.832031 70.625 72.957031 71.078125 72.957031 71.367188 C 72.914062 73.101562 71.554688 74.421875 69.902344 74.421875 Z M 53.691406 37.746094 L 64.375 64.109375 L 48.246094 51.402344 Z M 53.691406 37.746094 " fill-opacity="1" fill-rule="nonzero"/></g></svg>