<svg xmlns="http://www.w3.org/2000/svg" xmlns:xlink="http://www.w3.org/1999/xlink" width="143" zoomAndPan="magnify" viewBox="0 0 107.25 107.249999" height="143" preserveAspectRatio="xMidYMid meet" version="1.0"><defs><clipPath id="1b5d56a12e"><path d="M 0 0 L 105.964844 0 L 105.964844 105.964844 L 0 105.964844 Z M 0 0 " clip-rule="nonzero"/></clipPath><clipPath id="050429a6b0"><path d="M 52.984375 0 C 23.722656 0 0 23.722656 0 52.984375 C 0 82.246094 23.722656 105.964844 52.984375 105.964844 C 82.246094 105.964844 105.964844 82.246094 105.964844 52.984375 C 105.964844 23.722656 82.246094 0 52.984375 0 Z M 52.984375 0 " clip-rule="nonzero"/></clipPath><clipPath id="749bd3e0b2"><path d="M 15.75 14.75 L 92.460938 14.75 L 92.460938 89 L 15.75 89 Z M 15.75 14.75 " clip-rule="nonzero"/></clipPath></defs><g clip-path="url(#1b5d56a12e)"><g clip-path="url(#050429a6b0)"><path fill="#38b6ff" d="M 0 0 L 105.964844 0 L 105.964844 105.964844 L 0 105.964844 Z M 0 0 " fill-opacity="1" fill-rule="nonzero"/></g></g><g clip-path="url(#749bd3e0b2)"><path fill="#ffffff" d="M 53.925781 14.75 C 53.234375 14.789062 52.582031 14.964844 51.960938 15.269531 L 25.371094 27.953125 C 23.980469 28.617188 22.972656 29.871094 22.625 31.371094 L 16.117188 59.839844 C 15.804688 61.175781 16.058594 62.574219 16.832031 63.722656 C 16.921875 63.859375 17.019531 63.992188 17.117188 64.121094 L 35.492188 86.964844 C 36.460938 88.160156 37.921875 88.84375 39.457031 88.835938 L 68.925781 88.835938 C 70.464844 88.839844 71.925781 88.121094 72.894531 86.945312 L 91.257812 64.09375 C 92.222656 62.902344 92.582031 61.328125 92.210938 59.835938 L 85.660156 31.34375 C 85.3125 29.84375 84.300781 28.585938 82.914062 27.925781 L 56.367188 15.273438 C 55.589844 14.890625 54.769531 14.714844 53.902344 14.75 Z M 53.925781 14.75 " fill-opacity="1" fill-rule="nonzero"/></g><path stroke-linecap="butt" transform="matrix(2.386022, 0, 0, 2.386022, 15.987915, 13.614388)" fill-opacity="1" fill="#38b6ff" fill-rule="nonzero" stroke-linejoin="miter" d="M 16.001551 4.542597 C 15.61846 4.568791 15.32705 4.897856 15.346695 5.282584 L 15.346695 5.469218 C 15.364704 5.683683 15.397447 5.893237 15.438375 6.102791 C 15.500586 6.50389 15.521869 6.908263 15.505498 7.312636 C 15.466206 7.445245 15.390898 7.566393 15.287758 7.658073 L 15.271387 7.939661 C 14.867014 7.97404 14.464277 8.036252 14.069727 8.126294 C 12.403119 8.501199 10.885491 9.365609 9.714937 10.611472 L 9.474277 10.441209 C 9.343306 10.4805 9.200875 10.465766 9.079727 10.400281 C 8.753936 10.159621 8.455977 9.889493 8.182575 9.591534 C 8.046692 9.42782 7.900987 9.272292 7.745459 9.126586 L 7.598116 9.008712 C 7.465508 8.902298 7.303431 8.841724 7.134806 8.833539 C 6.918703 8.822079 6.740255 8.900661 6.604373 9.069287 C 6.378447 9.385254 6.452119 9.825645 6.768087 10.05157 L 6.905606 10.161258 C 7.084054 10.280769 7.267414 10.387183 7.457322 10.485412 C 7.812581 10.681869 8.146558 10.912705 8.455977 11.18447 C 8.536197 11.300707 8.5804 11.428404 8.588585 11.569198 L 8.806325 11.768929 C 7.629222 13.535402 7.146266 15.673506 7.449136 17.775592 L 7.169186 17.855812 C 7.095514 17.970412 6.998923 18.070277 6.882686 18.142311 C 6.49141 18.247088 6.093585 18.312574 5.689212 18.340405 C 5.474747 18.343679 5.261919 18.361688 5.049091 18.389519 L 4.87228 18.430448 L 4.852634 18.430448 C 4.726574 18.446819 4.615249 18.495933 4.51702 18.576153 C 4.420429 18.65801 4.351669 18.757876 4.310741 18.877387 C 4.269812 18.996898 4.263264 19.118046 4.291095 19.240832 C 4.318927 19.365254 4.376226 19.471668 4.464632 19.561711 C 4.554675 19.651754 4.661089 19.712328 4.783874 19.741796 C 4.906659 19.771265 5.027808 19.766353 5.148956 19.727062 L 5.162053 19.727062 L 5.342138 19.707416 C 5.545144 19.646842 5.744875 19.573171 5.939694 19.489677 C 6.314599 19.33906 6.704238 19.22446 7.102063 19.149152 C 7.239583 19.157338 7.372191 19.204815 7.483516 19.283397 L 7.78475 19.234283 C 8.434694 21.251238 9.800068 22.960412 11.623841 24.037649 L 11.502693 24.291406 C 11.558355 24.40928 11.579638 24.538614 11.56163 24.667948 C 11.396279 25.049401 11.194911 25.41612 10.959163 25.759919 C 10.829829 25.930182 10.710317 26.10863 10.600629 26.293627 L 10.515498 26.473712 C 10.453287 26.581763 10.423818 26.699637 10.427092 26.825697 C 10.430367 26.951757 10.466384 27.066356 10.535144 27.17277 C 10.603903 27.277547 10.693946 27.357767 10.808546 27.411793 C 10.921508 27.465818 11.04102 27.487101 11.165442 27.474004 C 11.291502 27.45927 11.404464 27.41343 11.50433 27.336484 C 11.602558 27.257902 11.674592 27.159673 11.718795 27.041799 L 11.802289 26.871537 C 11.877598 26.671806 11.941446 26.468801 11.993834 26.262521 C 12.170646 25.825405 12.267237 25.355546 12.509533 25.065772 C 12.589753 24.990464 12.684707 24.942987 12.794396 24.926616 L 12.945012 24.653213 C 13.933844 25.03303 14.957056 25.224575 16.016285 25.226212 C 17.075514 25.229486 18.100363 25.042853 19.090832 24.667948 L 19.223441 24.923341 C 19.359323 24.942987 19.482109 25.018295 19.563966 25.127984 C 19.752237 25.486517 19.904491 25.861422 20.020727 26.247787 C 20.073116 26.455704 20.136964 26.658709 20.21391 26.85844 L 20.297404 27.028702 C 20.341607 27.146576 20.413641 27.244805 20.513506 27.32175 C 20.613372 27.398696 20.724697 27.444536 20.850757 27.457633 C 20.975179 27.472367 21.094691 27.452721 21.20929 27.398696 C 21.32389 27.34467 21.41557 27.266087 21.48433 27.159673 C 21.55309 27.053259 21.587469 26.93866 21.590744 26.810963 C 21.594018 26.684903 21.562912 26.568666 21.500701 26.458978 L 21.412296 26.278893 C 21.304244 26.095533 21.184733 25.918722 21.055399 25.748459 C 20.824563 25.41612 20.626469 25.062498 20.454569 24.690868 C 20.421826 24.548437 20.443109 24.414191 20.523329 24.291406 C 20.480763 24.203 20.443109 24.114595 20.412004 24.021278 C 22.232502 22.937492 23.591328 21.22177 24.234723 19.20154 L 24.519586 19.252292 C 24.621088 19.158975 24.755334 19.10986 24.891216 19.114772 C 25.289041 19.19008 25.67868 19.314503 26.053585 19.45366 C 26.248404 19.543702 26.449773 19.620648 26.652778 19.684496 C 26.700255 19.697593 26.770652 19.707416 26.824677 19.720513 L 26.837775 19.720513 C 26.957286 19.759805 27.078434 19.764716 27.201219 19.73361 C 27.324005 19.704142 27.430419 19.643568 27.518824 19.555162 C 27.608867 19.46512 27.667804 19.357068 27.695635 19.234283 C 27.723467 19.111498 27.718555 18.990349 27.677627 18.869201 C 27.636698 18.74969 27.567939 18.649824 27.46971 18.569605 C 27.371482 18.489385 27.260156 18.440271 27.134097 18.423899 L 26.939277 18.378059 C 26.728086 18.348591 26.513621 18.332219 26.300793 18.327308 C 25.89642 18.302751 25.49532 18.235628 25.105681 18.130851 C 24.98617 18.063729 24.886305 17.963863 24.817545 17.842715 L 24.547417 17.762495 C 24.691485 16.713089 24.644008 15.671868 24.404986 14.638834 C 24.167601 13.605799 23.751767 12.64971 23.162397 11.770566 L 23.398145 11.551189 C 23.388322 11.415307 23.432525 11.279424 23.522568 11.174647 C 23.828713 10.909431 24.162689 10.676957 24.5114 10.477226 C 24.702945 10.380635 24.886305 10.272584 25.064753 10.15471 L 25.210458 10.036836 C 25.320147 9.969713 25.402004 9.876396 25.459303 9.760159 C 25.514966 9.643922 25.536249 9.522774 25.523152 9.39344 C 25.508418 9.265743 25.460941 9.151143 25.380721 9.049641 C 25.300501 8.949775 25.198998 8.877741 25.076213 8.835176 C 24.955065 8.79261 24.830642 8.786061 24.706219 8.81553 C 24.58016 8.843361 24.472109 8.903935 24.380429 8.995615 L 24.233086 9.113489 C 24.079195 9.260832 23.93349 9.41636 23.79597 9.578437 C 23.532391 9.881308 23.239343 10.156347 22.923375 10.401918 C 22.792404 10.455943 22.658158 10.46904 22.519002 10.44612 L 22.265245 10.626206 C 20.806554 9.095481 18.838713 8.14594 16.731715 7.956032 C 16.731715 7.856166 16.718618 7.70555 16.715344 7.65971 C 16.602381 7.581127 16.523798 7.461616 16.497604 7.327371 C 16.484507 6.922997 16.509064 6.520261 16.57455 6.120799 C 16.617115 5.909608 16.646584 5.700054 16.666229 5.487226 L 16.666229 5.287495 C 16.685875 4.902768 16.396101 4.573703 16.011374 4.547508 Z M 15.168247 9.707771 L 14.968516 13.201426 L 14.953782 13.201426 C 14.942322 13.417528 14.816262 13.600887 14.621443 13.705664 C 14.426623 13.808804 14.195787 13.777699 14.020613 13.651639 L 11.155619 11.621586 C 12.085514 10.708063 13.187309 10.107233 14.459366 9.822371 C 14.693477 9.771619 14.929225 9.733965 15.16661 9.707771 Z M 16.836492 9.707771 C 18.341023 9.894405 19.742414 10.570543 20.8262 11.631409 L 17.987401 13.648365 C 17.812227 13.789158 17.573204 13.81699 17.370199 13.720399 C 17.167194 13.625445 17.036223 13.420802 17.034586 13.196514 Z M 10.116036 12.934572 L 12.735458 15.272406 L 12.735458 15.288778 C 12.899172 15.429572 12.969569 15.650586 12.922092 15.861777 C 12.874615 16.072968 12.712539 16.239956 12.504622 16.297256 L 12.504622 16.307078 L 9.143575 17.274628 C 9.060081 16.516632 9.10101 15.766822 9.267998 15.023561 C 9.434986 14.278663 9.718211 13.582879 10.117673 12.934572 Z M 21.869057 12.934572 C 22.664707 14.229549 23.016692 15.748814 22.870987 17.26153 L 19.503391 16.292344 L 19.503391 16.279247 C 19.293838 16.221947 19.133398 16.054959 19.087558 15.843768 C 19.040081 15.632577 19.110478 15.4132 19.272555 15.270769 L 21.872332 12.942758 Z M 15.464569 15.455766 L 16.536895 15.455766 L 17.191751 16.287433 L 16.954366 17.327016 L 15.991728 17.790326 L 15.025816 17.327016 L 14.798254 16.287433 Z M 18.899287 18.292928 C 18.94349 18.288017 18.999153 18.288017 19.033533 18.292928 L 22.500993 18.877387 C 22.001666 20.318069 21.014471 21.547561 19.726042 22.371042 L 18.385225 19.126232 C 18.349208 19.039464 18.334474 18.946147 18.341023 18.851193 C 18.349208 18.756238 18.37704 18.666196 18.427791 18.585976 C 18.478542 18.504119 18.545665 18.438633 18.627522 18.389519 C 18.709379 18.340405 18.799422 18.314211 18.894376 18.307662 Z M 13.075983 18.307662 C 13.27244 18.310937 13.452525 18.412439 13.560577 18.576153 C 13.666991 18.739867 13.683362 18.946147 13.606416 19.126232 L 13.606416 19.139329 L 12.275422 22.356307 C 11.000091 21.539375 10.032542 20.324618 9.516843 18.900307 L 12.953198 18.317485 C 12.992489 18.312574 13.031781 18.312574 13.069435 18.317485 Z M 15.980268 19.707416 C 16.091594 19.704142 16.194733 19.730336 16.291325 19.785999 C 16.389553 19.841662 16.463224 19.918607 16.51725 20.015198 L 16.530347 20.015198 L 18.224786 23.073374 L 17.54701 23.273105 C 16.301147 23.557967 14.999622 23.490845 13.789776 23.078286 L 15.489126 20.021747 C 15.592266 19.841662 15.782174 19.731973 15.988454 19.727062 Z M 15.980268 19.707416 " stroke="#ffffff" stroke-width="0.055" stroke-opacity="1" stroke-miterlimit="4"/></svg>