<svg xmlns="http://www.w3.org/2000/svg" xmlns:xlink="http://www.w3.org/1999/xlink" width="143" zoomAndPan="magnify" viewBox="0 0 107.25 107.249999" height="143" preserveAspectRatio="xMidYMid meet" version="1.0"><defs><clipPath id="85911a5426"><path d="M 0 0 L 105.964844 0 L 105.964844 105.964844 L 0 105.964844 Z M 0 0 " clip-rule="nonzero"/></clipPath><clipPath id="410b1036e6"><path d="M 52.984375 0 C 23.722656 0 0 23.722656 0 52.984375 C 0 82.246094 23.722656 105.964844 52.984375 105.964844 C 82.246094 105.964844 105.964844 82.246094 105.964844 52.984375 C 105.964844 23.722656 82.246094 0 52.984375 0 Z M 52.984375 0 " clip-rule="nonzero"/></clipPath><clipPath id="8ccd891d5b"><path d="M 15.527344 14 L 90.75 14 L 90.75 91.433594 L 15.527344 91.433594 Z M 15.527344 14 " clip-rule="nonzero"/></clipPath></defs><g clip-path="url(#85911a5426)"><g clip-path="url(#410b1036e6)"><path fill="#38b6ff" d="M 0 0 L 105.964844 0 L 105.964844 105.964844 L 0 105.964844 Z M 0 0 " fill-opacity="1" fill-rule="nonzero"/></g></g><g clip-path="url(#8ccd891d5b)"><path fill="#ffffff" d="M 88.75 50.105469 C 86.621094 48.273438 82.996094 49.027344 82.632812 49.109375 C 77.25 50.253906 70.246094 49.992188 72.164062 43.625 C 73.03125 41.601562 73.554688 39.492188 73.730469 37.300781 C 73.90625 35.105469 73.726562 32.941406 73.191406 30.804688 C 73.152344 30.632812 73.082031 30.476562 72.980469 30.332031 C 72.878906 30.1875 72.753906 30.070312 72.601562 29.976562 C 72.453125 29.882812 72.289062 29.824219 72.117188 29.796875 C 71.941406 29.769531 71.769531 29.777344 71.597656 29.820312 C 71.425781 29.863281 71.269531 29.9375 71.128906 30.042969 C 70.988281 30.148438 70.875 30.28125 70.785156 30.433594 C 70.695312 30.585938 70.640625 30.75 70.617188 30.921875 C 70.597656 31.097656 70.609375 31.269531 70.65625 31.441406 C 71.121094 33.292969 71.277344 35.171875 71.125 37.078125 C 70.972656 38.984375 70.523438 40.816406 69.773438 42.574219 C 69.582031 42.996094 69.4375 43.433594 69.339844 43.886719 C 69.242188 44.339844 69.1875 44.796875 69.183594 45.261719 C 69.179688 45.722656 69.222656 46.183594 69.316406 46.636719 C 69.40625 47.089844 69.542969 47.53125 69.726562 47.957031 C 69.90625 48.382812 70.128906 48.785156 70.394531 49.167969 C 70.660156 49.546875 70.960938 49.894531 71.300781 50.210938 C 71.636719 50.53125 72.003906 50.808594 72.398438 51.050781 C 72.792969 51.292969 73.210938 51.492188 73.644531 51.648438 C 76.816406 52.460938 79.988281 52.46875 83.164062 51.667969 C 84.324219 51.492188 87.730469 50.957031 87.558594 53.589844 C 87.082031 54.726562 86.492188 55.804688 85.78125 56.816406 C 85.074219 57.828125 84.261719 58.75 83.355469 59.585938 C 82.445312 60.421875 81.457031 61.148438 80.386719 61.769531 C 79.320312 62.390625 78.195312 62.886719 77.019531 63.265625 C 76.785156 60.917969 76.136719 58.695312 75.078125 56.589844 C 74.996094 56.4375 74.894531 56.304688 74.761719 56.195312 C 74.632812 56.082031 74.484375 56 74.320312 55.949219 C 74.15625 55.894531 73.992188 55.875 73.820312 55.886719 C 73.648438 55.902344 73.484375 55.945312 73.332031 56.023438 C 73.179688 56.097656 73.046875 56.203125 72.933594 56.332031 C 72.820312 56.460938 72.734375 56.605469 72.679688 56.769531 C 72.625 56.929688 72.601562 57.097656 72.613281 57.269531 C 72.621094 57.441406 72.664062 57.601562 72.738281 57.757812 C 73.296875 58.832031 73.726562 59.960938 74.027344 61.132812 C 74.328125 62.308594 74.492188 63.503906 74.519531 64.714844 C 74.542969 65.929688 74.433594 67.128906 74.183594 68.316406 C 73.933594 69.503906 73.550781 70.644531 73.039062 71.746094 C 66.355469 85.734375 53.164062 84.84375 52.609375 84.804688 C 38.070312 85.601562 26.867188 70.777344 32.511719 57.6875 C 32.582031 57.527344 32.621094 57.359375 32.628906 57.183594 C 32.632812 57.007812 32.605469 56.835938 32.542969 56.671875 C 32.476562 56.507812 32.386719 56.363281 32.261719 56.234375 C 32.140625 56.109375 32 56.011719 31.835938 55.941406 C 31.675781 55.871094 31.503906 55.835938 31.328125 55.835938 C 31.152344 55.835938 30.984375 55.867188 30.820312 55.9375 C 30.65625 56.003906 30.515625 56.101562 30.390625 56.226562 C 30.265625 56.351562 30.171875 56.496094 30.109375 56.660156 C 29.140625 58.945312 28.59375 61.328125 28.472656 63.808594 C 21.96875 61.085938 19.386719 56.753906 18.414062 54.3125 C 18.296875 54.042969 18.242188 53.757812 18.253906 53.464844 C 18.265625 53.167969 18.339844 52.890625 18.480469 52.632812 C 18.617188 52.371094 18.808594 52.152344 19.046875 51.980469 C 19.285156 51.804688 19.546875 51.691406 19.839844 51.640625 C 21.78125 51.433594 23.695312 51.582031 25.585938 52.078125 C 32.015625 53.75 37.972656 48.980469 35.273438 42.648438 C 34.136719 39.832031 33.800781 36.925781 34.261719 33.921875 C 37.160156 13.804688 60.464844 12.230469 68.15625 25.535156 C 68.253906 25.675781 68.371094 25.792969 68.507812 25.886719 C 68.648438 25.984375 68.800781 26.046875 68.96875 26.085938 C 69.132812 26.121094 69.296875 26.125 69.464844 26.09375 C 69.632812 26.066406 69.789062 26.007812 69.929688 25.917969 C 70.074219 25.828125 70.199219 25.71875 70.296875 25.582031 C 70.398438 25.445312 70.46875 25.292969 70.511719 25.128906 C 70.554688 24.964844 70.5625 24.800781 70.539062 24.632812 C 70.519531 24.464844 70.464844 24.308594 70.382812 24.160156 C 61.640625 8.84375 34.964844 11.027344 31.671875 33.550781 C 31.136719 37.050781 31.539062 40.4375 32.882812 43.710938 C 34.691406 48.132812 30.496094 50.597656 26.179688 49.535156 C 23.941406 48.949219 21.675781 48.792969 19.378906 49.066406 C 19.046875 49.128906 18.726562 49.230469 18.417969 49.367188 C 18.105469 49.503906 17.816406 49.671875 17.542969 49.871094 C 17.269531 50.070312 17.023438 50.296875 16.800781 50.550781 C 16.578125 50.804688 16.386719 51.082031 16.222656 51.378906 C 16.0625 51.675781 15.933594 51.984375 15.839844 52.3125 C 15.746094 52.636719 15.6875 52.96875 15.667969 53.304688 C 15.648438 53.640625 15.664062 53.976562 15.71875 54.3125 C 15.769531 54.644531 15.859375 54.96875 15.984375 55.285156 C 17.167969 58.246094 20.371094 63.59375 28.515625 66.628906 C 28.769531 69.433594 29.519531 72.09375 30.765625 74.621094 C 32.007812 77.144531 33.667969 79.359375 35.738281 81.261719 C 34.703125 81.808594 33.902344 82.589844 33.328125 83.609375 C 33.214844 83.828125 33.128906 84.058594 33.070312 84.300781 C 33.007812 84.539062 32.976562 84.78125 32.976562 85.03125 C 32.976562 85.277344 33.003906 85.519531 33.058594 85.761719 C 33.113281 86.003906 33.199219 86.234375 33.3125 86.453125 C 33.421875 86.675781 33.558594 86.878906 33.71875 87.066406 C 33.878906 87.253906 34.058594 87.421875 34.257812 87.566406 C 34.457031 87.710938 34.671875 87.832031 34.902344 87.925781 C 35.128906 88.019531 35.367188 88.085938 35.609375 88.125 C 36.035156 88.140625 36.429688 88.253906 36.796875 88.472656 C 37.164062 88.6875 37.457031 88.980469 37.675781 89.34375 C 37.875 89.738281 38.152344 90.074219 38.503906 90.34375 C 38.855469 90.617188 39.246094 90.800781 39.679688 90.894531 C 42.808594 91.453125 45.683594 91.054688 48.523438 87.175781 C 51.34375 87.570312 54.160156 87.542969 56.96875 87.09375 C 59.820312 91.050781 62.714844 91.449219 65.871094 90.898438 C 66.304688 90.800781 66.695312 90.617188 67.046875 90.34375 C 67.398438 90.074219 67.675781 89.738281 67.875 89.34375 C 68.09375 88.980469 68.386719 88.6875 68.753906 88.472656 C 69.121094 88.253906 69.515625 88.140625 69.941406 88.125 C 70.183594 88.085938 70.421875 88.019531 70.648438 87.925781 C 70.878906 87.832031 71.09375 87.710938 71.292969 87.566406 C 71.492188 87.421875 71.671875 87.253906 71.832031 87.066406 C 71.992188 86.878906 72.128906 86.675781 72.242188 86.453125 C 72.351562 86.234375 72.4375 86.003906 72.492188 85.761719 C 72.550781 85.523438 72.578125 85.277344 72.574219 85.03125 C 72.574219 84.785156 72.542969 84.539062 72.484375 84.300781 C 72.425781 84.058594 72.335938 83.832031 72.222656 83.613281 C 71.574219 82.464844 70.652344 81.617188 69.453125 81.074219 C 71.953125 78.746094 73.925781 76.03125 75.367188 72.933594 C 76.429688 70.730469 77.003906 68.410156 77.09375 65.96875 C 78.558594 65.558594 79.953125 64.988281 81.285156 64.253906 C 82.613281 63.523438 83.84375 62.648438 84.972656 61.632812 C 86.097656 60.613281 87.097656 59.480469 87.960938 58.234375 C 88.828125 56.988281 89.539062 55.65625 90.097656 54.246094 C 90.25 53.484375 90.207031 52.734375 89.96875 52 C 89.726562 51.261719 89.320312 50.628906 88.75 50.105469 Z M 40.257812 88.347656 C 40.144531 88.320312 40.0625 88.257812 40.007812 88.15625 C 39.601562 87.40625 39.039062 86.796875 38.320312 86.332031 C 37.605469 85.867188 36.820312 85.601562 35.96875 85.535156 C 35.894531 85.523438 35.824219 85.496094 35.765625 85.453125 C 35.703125 85.40625 35.65625 85.351562 35.621094 85.285156 C 35.589844 85.21875 35.570312 85.148438 35.570312 85.074219 C 35.574219 85 35.589844 84.929688 35.625 84.863281 C 36.1875 83.953125 36.988281 83.375 38.027344 83.121094 C 40.34375 84.769531 42.886719 85.941406 45.652344 86.632812 C 45.324219 87.007812 44.949219 87.335938 44.53125 87.609375 C 44.117188 87.882812 43.667969 88.09375 43.195312 88.246094 C 42.71875 88.394531 42.230469 88.480469 41.730469 88.496094 C 41.234375 88.515625 40.742188 88.464844 40.257812 88.347656 Z M 67.074219 83.011719 C 67.65625 83.105469 68.195312 83.3125 68.695312 83.636719 C 69.191406 83.957031 69.601562 84.367188 69.925781 84.859375 C 69.960938 84.925781 69.976562 85 69.980469 85.074219 C 69.980469 85.148438 69.960938 85.21875 69.929688 85.285156 C 69.894531 85.351562 69.847656 85.410156 69.785156 85.453125 C 69.726562 85.496094 69.65625 85.523438 69.582031 85.535156 C 68.730469 85.601562 67.945312 85.867188 67.230469 86.332031 C 66.511719 86.800781 65.949219 87.410156 65.542969 88.160156 C 65.488281 88.261719 65.40625 88.324219 65.292969 88.347656 C 64.789062 88.46875 64.277344 88.519531 63.761719 88.496094 C 63.242188 88.472656 62.738281 88.375 62.25 88.210938 C 61.757812 88.042969 61.300781 87.8125 60.875 87.515625 C 60.453125 87.21875 60.078125 86.867188 59.75 86.464844 C 62.378906 85.714844 64.820312 84.5625 67.074219 83.011719 Z M 67.074219 83.011719 " fill-opacity="1" fill-rule="nonzero"/></g><path fill="#ffffff" d="M 68.621094 37.148438 C 69.597656 31.628906 66.082031 25.386719 61.09375 25.652344 C 60.382812 25.652344 59.683594 25.75 59 25.941406 C 58.3125 26.132812 57.667969 26.410156 57.054688 26.777344 C 56.445312 27.140625 55.894531 27.582031 55.402344 28.09375 C 54.910156 28.609375 54.496094 29.179688 54.15625 29.804688 C 53.539062 30.917969 53.160156 32.109375 53.015625 33.371094 C 52.871094 34.636719 52.972656 35.882812 53.320312 37.105469 C 52.773438 37.027344 52.226562 37.027344 51.679688 37.105469 C 53.289062 32.234375 49.796875 25.496094 43.910156 25.644531 C 43.203125 25.648438 42.511719 25.757812 41.839844 25.96875 C 41.164062 26.179688 40.535156 26.488281 39.953125 26.886719 C 39.371094 27.285156 38.859375 27.761719 38.417969 28.316406 C 37.980469 28.871094 37.628906 29.476562 37.371094 30.132812 C 34.863281 35.921875 37.144531 40.878906 38.78125 47.617188 C 38.910156 48.042969 38.9375 48.472656 38.867188 48.910156 C 38.792969 49.351562 38.625 49.75 38.363281 50.109375 C 36.046875 53.238281 34.476562 56.703125 33.652344 60.511719 C 33.625 60.679688 33.628906 60.847656 33.664062 61.015625 C 33.703125 61.183594 33.769531 61.339844 33.867188 61.480469 C 33.96875 61.621094 34.089844 61.738281 34.234375 61.832031 C 34.378906 61.925781 34.535156 61.988281 34.703125 62.019531 C 34.875 62.050781 35.042969 62.046875 35.210938 62.011719 C 35.378906 61.976562 35.535156 61.910156 35.675781 61.8125 C 35.820312 61.71875 35.9375 61.597656 36.03125 61.453125 C 36.128906 61.308594 36.191406 61.152344 36.226562 60.984375 C 36.972656 57.570312 38.386719 54.460938 40.472656 51.65625 C 40.972656 50.976562 41.292969 50.222656 41.4375 49.394531 C 41.585938 48.566406 41.542969 47.75 41.304688 46.941406 C 40.289062 43.613281 39.511719 40.230469 38.96875 36.792969 C 37.800781 23.011719 53.507812 27.785156 48.410156 38.441406 C 46.328125 39.65625 45.316406 42.035156 47.003906 43.960938 C 47.339844 44.363281 47.714844 44.722656 48.132812 45.042969 C 48.546875 45.363281 48.992188 45.632812 49.46875 45.851562 C 49.941406 46.074219 50.4375 46.242188 50.949219 46.355469 C 51.457031 46.46875 51.976562 46.527344 52.5 46.523438 C 53.023438 46.523438 53.542969 46.46875 54.054688 46.355469 C 54.566406 46.242188 55.058594 46.074219 55.535156 45.851562 C 56.007812 45.632812 56.453125 45.359375 56.867188 45.042969 C 57.285156 44.722656 57.660156 44.363281 57.996094 43.960938 C 59.675781 42.03125 58.675781 39.65625 56.589844 38.445312 C 55.960938 37.304688 55.632812 36.085938 55.605469 34.789062 C 55.578125 33.488281 55.855469 32.253906 56.433594 31.089844 C 58.433594 27.488281 63.539062 27.117188 65.273438 31.28125 C 66.085938 33.039062 66.339844 34.875 66.03125 36.789062 C 65.488281 40.246094 64.703125 43.648438 63.683594 46.996094 C 63.457031 47.792969 63.421875 48.601562 63.566406 49.417969 C 63.710938 50.230469 64.027344 50.976562 64.515625 51.644531 C 66.160156 53.890625 69.875 59.765625 68.878906 65.785156 C 68.792969 66.339844 66.609375 79.394531 52.875 79.417969 C 40.890625 80.054688 36.75 69.601562 36.253906 66.351562 C 36.222656 66.179688 36.15625 66.019531 36.058594 65.875 C 35.957031 65.726562 35.835938 65.605469 35.691406 65.511719 C 35.542969 65.414062 35.382812 65.351562 35.210938 65.320312 C 35.039062 65.289062 34.867188 65.289062 34.695312 65.328125 C 34.523438 65.367188 34.363281 65.433594 34.222656 65.535156 C 34.078125 65.636719 33.960938 65.761719 33.867188 65.910156 C 33.773438 66.058594 33.710938 66.21875 33.683594 66.394531 C 33.65625 66.566406 33.660156 66.738281 33.703125 66.910156 C 34.0625 69.601562 38.605469 82.726562 52.878906 82.03125 C 68.886719 82.003906 71.441406 66.335938 71.460938 66.195312 C 72.617188 59.214844 68.464844 52.613281 66.628906 50.101562 C 66.273438 49.613281 66.097656 49.066406 66.097656 48.460938 C 67.03125 44.234375 68.34375 39.988281 68.621094 37.148438 Z M 56.039062 42.230469 C 55.609375 42.777344 55.082031 43.199219 54.457031 43.496094 C 53.832031 43.792969 53.171875 43.9375 52.476562 43.921875 C 51.789062 43.9375 51.136719 43.796875 50.515625 43.496094 C 49.898438 43.199219 49.378906 42.777344 48.960938 42.230469 C 48.785156 42.0625 48.730469 41.863281 48.792969 41.628906 C 49.222656 40.648438 52.027344 39.125 53.558594 39.839844 C 54.945312 40.386719 56.773438 41.28125 56.039062 42.230469 Z M 56.039062 42.230469 " fill-opacity="1" fill-rule="nonzero"/><path fill="#ffffff" d="M 46.457031 33.902344 C 46.40625 30.585938 42.765625 30.589844 42.714844 33.902344 C 42.765625 37.214844 46.40625 37.214844 46.457031 33.902344 Z M 46.457031 33.902344 " fill-opacity="1" fill-rule="nonzero"/><path fill="#ffffff" d="M 63.113281 33.902344 C 63.066406 30.585938 59.421875 30.589844 59.375 33.902344 C 59.421875 37.214844 63.066406 37.214844 63.113281 33.902344 Z M 63.113281 33.902344 " fill-opacity="1" fill-rule="nonzero"/></svg>