<svg xmlns="http://www.w3.org/2000/svg" xmlns:xlink="http://www.w3.org/1999/xlink" width="143" zoomAndPan="magnify" viewBox="0 0 107.25 107.249999" height="143" preserveAspectRatio="xMidYMid meet" version="1.0"><defs><clipPath id="205e4c9a78"><path d="M 0 0 L 105.964844 0 L 105.964844 105.964844 L 0 105.964844 Z M 0 0 " clip-rule="nonzero"/></clipPath><clipPath id="b707b4ca43"><path d="M 52.984375 0 C 23.722656 0 0 23.722656 0 52.984375 C 0 82.246094 23.722656 105.964844 52.984375 105.964844 C 82.246094 105.964844 105.964844 82.246094 105.964844 52.984375 C 105.964844 23.722656 82.246094 0 52.984375 0 Z M 52.984375 0 " clip-rule="nonzero"/></clipPath><clipPath id="13efbae936"><path d="M 13 37 L 99.878906 37 L 99.878906 87 L 13 87 Z M 13 37 " clip-rule="nonzero"/></clipPath></defs><g clip-path="url(#205e4c9a78)"><g clip-path="url(#b707b4ca43)"><path fill="#38b6ff" d="M 0 0 L 105.964844 0 L 105.964844 105.964844 L 0 105.964844 Z M 0 0 " fill-opacity="1" fill-rule="nonzero"/></g></g><g clip-path="url(#13efbae936)"><path fill="#ffffff" d="M 42.898438 86.949219 C 32.988281 86.949219 25.359375 83.886719 20.226562 77.84375 C 15.300781 72.042969 12.863281 63.121094 14.15625 55.628906 C 14.308594 54.769531 15.054688 54.140625 15.925781 54.140625 L 71.925781 54.140625 C 73.476562 54.183594 74.730469 53.921875 75.667969 53.644531 C 73.832031 49.136719 74.910156 43.640625 77.148438 40.277344 L 78.34375 38.484375 C 78.894531 37.664062 79.992188 37.441406 80.820312 37.984375 L 82.625 39.175781 C 85.652344 41.488281 87.515625 43.988281 88.339844 46.832031 C 91.449219 46.5625 95.21875 46.984375 97.351562 48.410156 L 99.058594 49.542969 C 99.808594 50.039062 100.074219 51.019531 99.675781 51.828125 L 99.476562 52.238281 C 99.171875 52.863281 98.734375 53.753906 98.542969 54.09375 C 95.378906 60.066406 89.476562 60.765625 86.386719 60.8125 C 78.878906 77.683594 63.484375 86.949219 42.898438 86.949219 Z M 17.488281 57.726562 C 16.890625 63.890625 19.003906 70.871094 22.953125 75.523438 C 27.382812 80.726562 34.089844 83.363281 42.898438 83.363281 C 62.390625 83.363281 76.828125 74.472656 83.550781 58.324219 C 83.832031 57.648438 84.546875 57.289062 85.238281 57.222656 C 88.75 57.296875 93.066406 56.796875 95.382812 52.394531 C 95.398438 52.367188 95.421875 52.328125 95.433594 52.304688 C 95.503906 52.1875 95.628906 51.945312 95.765625 51.660156 L 95.359375 51.390625 C 94.078125 50.535156 90.355469 50.015625 87.261719 50.585938 C 86.785156 50.671875 86.28125 50.5625 85.882812 50.277344 C 85.484375 49.992188 85.21875 49.554688 85.15625 49.070312 C 84.792969 46.472656 83.289062 44.195312 80.546875 42.09375 L 80.332031 41.957031 L 80.121094 42.269531 C 78.210938 45.136719 77.488281 50.277344 79.65625 53.574219 C 79.933594 53.996094 80.019531 54.511719 79.898438 55 C 79.769531 55.488281 79.449219 55.898438 79.003906 56.136719 C 78.078125 56.632812 75.582031 57.785156 71.890625 57.71875 L 17.488281 57.71875 Z M 17.488281 57.726562 " fill-opacity="1" fill-rule="nonzero"/></g><path fill="#ffffff" d="M 71.175781 57.703125 L 19.195312 57.703125 C 18.203125 57.703125 17.402344 56.898438 17.402344 55.910156 L 17.402344 45.699219 C 17.402344 44.710938 18.203125 43.90625 19.195312 43.90625 L 71.175781 43.90625 C 72.164062 43.90625 72.964844 44.710938 72.964844 45.699219 L 72.964844 55.910156 C 72.964844 56.902344 72.164062 57.703125 71.175781 57.703125 Z M 20.988281 54.117188 L 69.382812 54.117188 L 69.382812 47.492188 L 20.988281 47.492188 Z M 20.988281 54.117188 " fill-opacity="1" fill-rule="nonzero"/><path fill="#ffffff" d="M 60.417969 47.492188 L 28.152344 47.492188 C 27.164062 47.492188 26.359375 46.6875 26.359375 45.699219 L 26.359375 35.488281 C 26.359375 34.5 27.164062 33.695312 28.152344 33.695312 L 60.417969 33.695312 C 61.410156 33.695312 62.210938 34.5 62.210938 35.488281 L 62.210938 45.703125 C 62.210938 46.691406 61.410156 47.492188 60.417969 47.492188 Z M 29.945312 43.90625 L 58.625 43.90625 L 58.625 37.28125 L 29.945312 37.28125 Z M 29.945312 43.90625 " fill-opacity="1" fill-rule="nonzero"/><path fill="#ffffff" d="M 60.417969 57.703125 L 49.664062 57.703125 C 48.675781 57.703125 47.871094 56.898438 47.871094 55.910156 L 47.871094 25.273438 C 47.871094 24.285156 48.675781 23.484375 49.664062 23.484375 L 60.417969 23.484375 C 61.410156 23.484375 62.210938 24.285156 62.210938 25.273438 L 62.210938 55.910156 C 62.210938 56.902344 61.410156 57.703125 60.417969 57.703125 Z M 51.457031 54.117188 L 58.625 54.117188 L 58.625 27.066406 L 51.457031 27.066406 Z M 51.457031 54.117188 " fill-opacity="1" fill-rule="nonzero"/><path fill="#ffffff" d="M 49.664062 57.703125 L 38.910156 57.703125 C 37.917969 57.703125 37.117188 56.898438 37.117188 55.910156 L 37.117188 35.488281 C 37.117188 34.5 37.917969 33.695312 38.910156 33.695312 L 49.664062 33.695312 C 50.652344 33.695312 51.457031 34.5 51.457031 35.488281 L 51.457031 55.914062 C 51.457031 56.902344 50.652344 57.703125 49.664062 57.703125 Z M 40.699219 54.117188 L 47.871094 54.117188 L 47.871094 37.28125 L 40.699219 37.28125 Z M 40.699219 54.117188 " fill-opacity="1" fill-rule="nonzero"/><path fill="#ffffff" d="M 38.910156 57.703125 L 28.152344 57.703125 C 27.164062 57.703125 26.359375 56.898438 26.359375 55.910156 L 26.359375 45.699219 C 26.359375 44.710938 27.164062 43.90625 28.152344 43.90625 L 38.910156 43.90625 C 39.898438 43.90625 40.699219 44.710938 40.699219 45.699219 L 40.699219 55.910156 C 40.699219 56.902344 39.898438 57.703125 38.910156 57.703125 Z M 29.945312 54.117188 L 37.117188 54.117188 L 37.117188 47.492188 L 29.945312 47.492188 Z M 29.945312 54.117188 " fill-opacity="1" fill-rule="nonzero"/></svg>